<svg id="" xmlns="http://www.w3.org/2000/svg" version="1.1" viewBox="0 0 64 64" width="2.5rem"
        height="2.5rem" style="transform: scale(1.5);overflow:hidden;">

          <path fill="var(--text)"
            d="M23.57 42.82a2.57 2.57 0 0 1-2.33-1.46l-4.14-8.47-4.25.06a1.5 1.5 0 1 1 0-3l4.5-.06a2.62 2.62 0 0 1 2.38 1.46L23.44 39l3.69-15.84a2.58 2.58 0 0 1 2.53-2h.06a2.58 2.58 0 0 1 2.5 2.12l1.57 8.47 1-2.75a2.6 2.6 0 0 1 5 .39l1.37 7.46 1.37-4.82A2.61 2.61 0 0 1 45 30.16h6.15a1.5 1.5 0 0 1 0 3h-5.83l-1.75 6.18a2.6 2.6 0 0 1-5.06-.24l-1.41-7.67-1 2.74a2.6 2.6 0 0 1-5-.39l-1.5-8.06-3.49 15.09a2.57 2.57 0 0 1-2.24 2z" />
        </svg>